<svg class="rich-terminal" viewBox="0 0 1238 782.0" xmlns="http://www.w3.org/2000/svg">
    <!-- Generated with Rich https://www.textualize.io -->
    <style>

    @font-face {
        font-family: "Fira Code";
        src: local("FiraCode-Regular"),
                url("https://cdnjs.cloudflare.com/ajax/libs/firacode/6.2.0/woff2/FiraCode-Regular.woff2") format("woff2"),
                url("https://cdnjs.cloudflare.com/ajax/libs/firacode/6.2.0/woff/FiraCode-Regular.woff") format("woff");
        font-style: normal;
        font-weight: 400;
    }
    @font-face {
        font-family: "Fira Code";
        src: local("FiraCode-Bold"),
                url("https://cdnjs.cloudflare.com/ajax/libs/firacode/6.2.0/woff2/FiraCode-Bold.woff2") format("woff2"),
                url("https://cdnjs.cloudflare.com/ajax/libs/firacode/6.2.0/woff/FiraCode-Bold.woff") format("woff");
        font-style: bold;
        font-weight: 700;
    }

    .terminal-2326266696-matrix {
        font-family: Fira Code, monospace;
        font-size: 20px;
        line-height: 24.4px;
        font-variant-east-asian: full-width;
    }

    .terminal-2326266696-title {
        font-size: 18px;
        font-weight: bold;
        font-family: arial;
    }

    .terminal-2326266696-r1 { fill: #c5c8c6 }
.terminal-2326266696-r2 { fill: #bfbfbf;font-weight: bold }
.terminal-2326266696-r3 { fill: #cecece;font-weight: bold }
.terminal-2326266696-r4 { fill: #3b3b3b }
.terminal-2326266696-r5 { fill: #999999 }
.terminal-2326266696-r6 { fill: #e0e0e0 }
.terminal-2326266696-r7 { fill: #9f9f9f }
.terminal-2326266696-r8 { fill: #8b8b8b }
.terminal-2326266696-r9 { fill: #b9b9b9;font-weight: bold }
.terminal-2326266696-r10 { fill: #e0e0e0;font-weight: bold }
.terminal-2326266696-r11 { fill: #a0a0a0 }
.terminal-2326266696-r12 { fill: #9e9e9e }
.terminal-2326266696-r13 { fill: #ffffff;font-weight: bold }
.terminal-2326266696-r14 { fill: #121212 }
.terminal-2326266696-r15 { fill: #f3f3f3 }
.terminal-2326266696-r16 { fill: #b0b0b0;font-weight: bold }
.terminal-2326266696-r17 { fill: #424242 }
    </style>

    <defs>
    <clipPath id="terminal-2326266696-clip-terminal">
      <rect x="0" y="0" width="1219.0" height="731.0" />
    </clipPath>
    <clipPath id="terminal-2326266696-line-0">
    <rect x="0" y="1.5" width="1220" height="24.65"/>
            </clipPath>
<clipPath id="terminal-2326266696-line-1">
    <rect x="0" y="25.9" width="1220" height="24.65"/>
            </clipPath>
<clipPath id="terminal-2326266696-line-2">
    <rect x="0" y="50.3" width="1220" height="24.65"/>
            </clipPath>
<clipPath id="terminal-2326266696-line-3">
    <rect x="0" y="74.7" width="1220" height="24.65"/>
            </clipPath>
<clipPath id="terminal-2326266696-line-4">
    <rect x="0" y="99.1" width="1220" height="24.65"/>
            </clipPath>
<clipPath id="terminal-2326266696-line-5">
    <rect x="0" y="123.5" width="1220" height="24.65"/>
            </clipPath>
<clipPath id="terminal-2326266696-line-6">
    <rect x="0" y="147.9" width="1220" height="24.65"/>
            </clipPath>
<clipPath id="terminal-2326266696-line-7">
    <rect x="0" y="172.3" width="1220" height="24.65"/>
            </clipPath>
<clipPath id="terminal-2326266696-line-8">
    <rect x="0" y="196.7" width="1220" height="24.65"/>
            </clipPath>
<clipPath id="terminal-2326266696-line-9">
    <rect x="0" y="221.1" width="1220" height="24.65"/>
            </clipPath>
<clipPath id="terminal-2326266696-line-10">
    <rect x="0" y="245.5" width="1220" height="24.65"/>
            </clipPath>
<clipPath id="terminal-2326266696-line-11">
    <rect x="0" y="269.9" width="1220" height="24.65"/>
            </clipPath>
<clipPath id="terminal-2326266696-line-12">
    <rect x="0" y="294.3" width="1220" height="24.65"/>
            </clipPath>
<clipPath id="terminal-2326266696-line-13">
    <rect x="0" y="318.7" width="1220" height="24.65"/>
            </clipPath>
<clipPath id="terminal-2326266696-line-14">
    <rect x="0" y="343.1" width="1220" height="24.65"/>
            </clipPath>
<clipPath id="terminal-2326266696-line-15">
    <rect x="0" y="367.5" width="1220" height="24.65"/>
            </clipPath>
<clipPath id="terminal-2326266696-line-16">
    <rect x="0" y="391.9" width="1220" height="24.65"/>
            </clipPath>
<clipPath id="terminal-2326266696-line-17">
    <rect x="0" y="416.3" width="1220" height="24.65"/>
            </clipPath>
<clipPath id="terminal-2326266696-line-18">
    <rect x="0" y="440.7" width="1220" height="24.65"/>
            </clipPath>
<clipPath id="terminal-2326266696-line-19">
    <rect x="0" y="465.1" width="1220" height="24.65"/>
            </clipPath>
<clipPath id="terminal-2326266696-line-20">
    <rect x="0" y="489.5" width="1220" height="24.65"/>
            </clipPath>
<clipPath id="terminal-2326266696-line-21">
    <rect x="0" y="513.9" width="1220" height="24.65"/>
            </clipPath>
<clipPath id="terminal-2326266696-line-22">
    <rect x="0" y="538.3" width="1220" height="24.65"/>
            </clipPath>
<clipPath id="terminal-2326266696-line-23">
    <rect x="0" y="562.7" width="1220" height="24.65"/>
            </clipPath>
<clipPath id="terminal-2326266696-line-24">
    <rect x="0" y="587.1" width="1220" height="24.65"/>
            </clipPath>
<clipPath id="terminal-2326266696-line-25">
    <rect x="0" y="611.5" width="1220" height="24.65"/>
            </clipPath>
<clipPath id="terminal-2326266696-line-26">
    <rect x="0" y="635.9" width="1220" height="24.65"/>
            </clipPath>
<clipPath id="terminal-2326266696-line-27">
    <rect x="0" y="660.3" width="1220" height="24.65"/>
            </clipPath>
<clipPath id="terminal-2326266696-line-28">
    <rect x="0" y="684.7" width="1220" height="24.65"/>
            </clipPath>
    </defs>

    <rect fill="#292929" stroke="rgba(255,255,255,0.35)" stroke-width="1" x="1" y="1" width="1236" height="780" rx="8"/><text class="terminal-2326266696-title" fill="#c5c8c6" text-anchor="middle" x="618" y="27">JevexApp</text>
            <g transform="translate(26,22)">
            <circle cx="0" cy="0" r="7" fill="#ff5f57"/>
            <circle cx="22" cy="0" r="7" fill="#febc2e"/>
            <circle cx="44" cy="0" r="7" fill="#28c840"/>
            </g>

    <g transform="translate(9, 41)" clip-path="url(#terminal-2326266696-clip-terminal)">
    <rect fill="#1b1b1b" x="0" y="1.5" width="24.4" height="24.65" shape-rendering="crispEdges"/><rect fill="#1b1b1b" x="24.4" y="1.5" width="97.6" height="24.65" shape-rendering="crispEdges"/><rect fill="#1b1b1b" x="122" y="1.5" width="939.4" height="24.65" shape-rendering="crispEdges"/><rect fill="#1b1b1b" x="1061.4" y="1.5" width="134.2" height="24.65" shape-rendering="crispEdges"/><rect fill="#1b1b1b" x="1195.6" y="1.5" width="24.4" height="24.65" shape-rendering="crispEdges"/><rect fill="#1b1b1b" x="0" y="25.9" width="24.4" height="24.65" shape-rendering="crispEdges"/><rect fill="#1b1b1b" x="24.4" y="25.9" width="1171.2" height="24.65" shape-rendering="crispEdges"/><rect fill="#1b1b1b" x="1195.6" y="25.9" width="24.4" height="24.65" shape-rendering="crispEdges"/><rect fill="#1b1b1b" x="0" y="50.3" width="1220" height="24.65" shape-rendering="crispEdges"/><rect fill="#111111" x="0" y="74.7" width="1220" height="24.65" shape-rendering="crispEdges"/><rect fill="#111111" x="0" y="99.1" width="36.6" height="24.65" shape-rendering="crispEdges"/><rect fill="#111111" x="36.6" y="99.1" width="256.2" height="24.65" shape-rendering="crispEdges"/><rect fill="#111111" x="292.8" y="99.1" width="866.2" height="24.65" shape-rendering="crispEdges"/><rect fill="#000000" x="1159" y="99.1" width="24.4" height="24.65" shape-rendering="crispEdges"/><rect fill="#111111" x="1183.4" y="99.1" width="36.6" height="24.65" shape-rendering="crispEdges"/><rect fill="#111111" x="0" y="123.5" width="36.6" height="24.65" shape-rendering="crispEdges"/><rect fill="#111111" x="36.6" y="123.5" width="280.6" height="24.65" shape-rendering="crispEdges"/><rect fill="#111111" x="317.2" y="123.5" width="841.8" height="24.65" shape-rendering="crispEdges"/><rect fill="#000000" x="1159" y="123.5" width="24.4" height="24.65" shape-rendering="crispEdges"/><rect fill="#111111" x="1183.4" y="123.5" width="36.6" height="24.65" shape-rendering="crispEdges"/><rect fill="#111111" x="0" y="147.9" width="36.6" height="24.65" shape-rendering="crispEdges"/><rect fill="#111111" x="36.6" y="147.9" width="353.8" height="24.65" shape-rendering="crispEdges"/><rect fill="#111111" x="390.4" y="147.9" width="768.6" height="24.65" shape-rendering="crispEdges"/><rect fill="#000000" x="1159" y="147.9" width="24.4" height="24.65" shape-rendering="crispEdges"/><rect fill="#111111" x="1183.4" y="147.9" width="36.6" height="24.65" shape-rendering="crispEdges"/><rect fill="#111111" x="0" y="172.3" width="36.6" height="24.65" shape-rendering="crispEdges"/><rect fill="#111111" x="36.6" y="172.3" width="1122.4" height="24.65" shape-rendering="crispEdges"/><rect fill="#000000" x="1159" y="172.3" width="24.4" height="24.65" shape-rendering="crispEdges"/><rect fill="#111111" x="1183.4" y="172.3" width="36.6" height="24.65" shape-rendering="crispEdges"/><rect fill="#111111" x="0" y="196.7" width="36.6" height="24.65" shape-rendering="crispEdges"/><rect fill="#111111" x="36.6" y="196.7" width="85.4" height="24.65" shape-rendering="crispEdges"/><rect fill="#111111" x="122" y="196.7" width="1037" height="24.65" shape-rendering="crispEdges"/><rect fill="#000000" x="1159" y="196.7" width="24.4" height="24.65" shape-rendering="crispEdges"/><rect fill="#111111" x="1183.4" y="196.7" width="36.6" height="24.65" shape-rendering="crispEdges"/><rect fill="#111111" x="0" y="221.1" width="36.6" height="24.65" shape-rendering="crispEdges"/><rect fill="#111111" x="36.6" y="221.1" width="378.2" height="24.65" shape-rendering="crispEdges"/><rect fill="#1a1a1a" x="414.8" y="221.1" width="158.6" height="24.65" shape-rendering="crispEdges"/><rect fill="#111111" x="573.4" y="221.1" width="439.2" height="24.65" shape-rendering="crispEdges"/><rect fill="#111111" x="1012.6" y="221.1" width="146.4" height="24.65" shape-rendering="crispEdges"/><rect fill="#000000" x="1159" y="221.1" width="24.4" height="24.65" shape-rendering="crispEdges"/><rect fill="#111111" x="1183.4" y="221.1" width="36.6" height="24.65" shape-rendering="crispEdges"/><rect fill="#111111" x="0" y="245.5" width="36.6" height="24.65" shape-rendering="crispEdges"/><rect fill="#111111" x="36.6" y="245.5" width="475.8" height="24.65" shape-rendering="crispEdges"/><rect fill="#111111" x="512.4" y="245.5" width="195.2" height="24.65" shape-rendering="crispEdges"/><rect fill="#111111" x="707.6" y="245.5" width="305" height="24.65" shape-rendering="crispEdges"/><rect fill="#111111" x="1012.6" y="245.5" width="146.4" height="24.65" shape-rendering="crispEdges"/><rect fill="#000000" x="1159" y="245.5" width="24.4" height="24.65" shape-rendering="crispEdges"/><rect fill="#111111" x="1183.4" y="245.5" width="36.6" height="24.65" shape-rendering="crispEdges"/><rect fill="#111111" x="0" y="269.9" width="36.6" height="24.65" shape-rendering="crispEdges"/><rect fill="#111111" x="36.6" y="269.9" width="1122.4" height="24.65" shape-rendering="crispEdges"/><rect fill="#000000" x="1159" y="269.9" width="24.4" height="24.65" shape-rendering="crispEdges"/><rect fill="#111111" x="1183.4" y="269.9" width="36.6" height="24.65" shape-rendering="crispEdges"/><rect fill="#111111" x="0" y="294.3" width="36.6" height="24.65" shape-rendering="crispEdges"/><rect fill="#111111" x="36.6" y="294.3" width="1122.4" height="24.65" shape-rendering="crispEdges"/><rect fill="#000000" x="1159" y="294.3" width="24.4" height="24.65" shape-rendering="crispEdges"/><rect fill="#111111" x="1183.4" y="294.3" width="36.6" height="24.65" shape-rendering="crispEdges"/><rect fill="#111111" x="0" y="318.7" width="36.6" height="24.65" shape-rendering="crispEdges"/><rect fill="#111111" x="36.6" y="318.7" width="1122.4" height="24.65" shape-rendering="crispEdges"/><rect fill="#000000" x="1159" y="318.7" width="24.4" height="24.65" shape-rendering="crispEdges"/><rect fill="#111111" x="1183.4" y="318.7" width="36.6" height="24.65" shape-rendering="crispEdges"/><rect fill="#111111" x="0" y="343.1" width="36.6" height="24.65" shape-rendering="crispEdges"/><rect fill="#111111" x="36.6" y="343.1" width="1122.4" height="24.65" shape-rendering="crispEdges"/><rect fill="#000000" x="1159" y="343.1" width="24.4" height="24.65" shape-rendering="crispEdges"/><rect fill="#111111" x="1183.4" y="343.1" width="36.6" height="24.65" shape-rendering="crispEdges"/><rect fill="#111111" x="0" y="367.5" width="36.6" height="24.65" shape-rendering="crispEdges"/><rect fill="#111111" x="36.6" y="367.5" width="1122.4" height="24.65" shape-rendering="crispEdges"/><rect fill="#000000" x="1159" y="367.5" width="24.4" height="24.65" shape-rendering="crispEdges"/><rect fill="#111111" x="1183.4" y="367.5" width="36.6" height="24.65" shape-rendering="crispEdges"/><rect fill="#111111" x="0" y="391.9" width="36.6" height="24.65" shape-rendering="crispEdges"/><rect fill="#111111" x="36.6" y="391.9" width="1122.4" height="24.65" shape-rendering="crispEdges"/><rect fill="#000000" x="1159" y="391.9" width="24.4" height="24.65" shape-rendering="crispEdges"/><rect fill="#111111" x="1183.4" y="391.9" width="36.6" height="24.65" shape-rendering="crispEdges"/><rect fill="#111111" x="0" y="416.3" width="36.6" height="24.65" shape-rendering="crispEdges"/><rect fill="#111111" x="36.6" y="416.3" width="1122.4" height="24.65" shape-rendering="crispEdges"/><rect fill="#000000" x="1159" y="416.3" width="24.4" height="24.65" shape-rendering="crispEdges"/><rect fill="#111111" x="1183.4" y="416.3" width="36.6" height="24.65" shape-rendering="crispEdges"/><rect fill="#111111" x="0" y="440.7" width="36.6" height="24.65" shape-rendering="crispEdges"/><rect fill="#111111" x="36.6" y="440.7" width="1122.4" height="24.65" shape-rendering="crispEdges"/><rect fill="#000000" x="1159" y="440.7" width="24.4" height="24.65" shape-rendering="crispEdges"/><rect fill="#111111" x="1183.4" y="440.7" width="36.6" height="24.65" shape-rendering="crispEdges"/><rect fill="#111111" x="0" y="465.1" width="1220" height="24.65" shape-rendering="crispEdges"/><rect fill="#1b1b1b" x="0" y="489.5" width="24.4" height="24.65" shape-rendering="crispEdges"/><rect fill="#1b1b1b" x="24.4" y="489.5" width="183" height="24.65" shape-rendering="crispEdges"/><rect fill="#1b1b1b" x="207.4" y="489.5" width="988.2" height="24.65" shape-rendering="crispEdges"/><rect fill="#1b1b1b" x="1195.6" y="489.5" width="24.4" height="24.65" shape-rendering="crispEdges"/><rect fill="#1b1b1b" x="0" y="513.9" width="24.4" height="24.65" shape-rendering="crispEdges"/><rect fill="#1b1b1b" x="24.4" y="513.9" width="1171.2" height="24.65" shape-rendering="crispEdges"/><rect fill="#1b1b1b" x="1195.6" y="513.9" width="24.4" height="24.65" shape-rendering="crispEdges"/><rect fill="#1b1b1b" x="0" y="538.3" width="1220" height="24.65" shape-rendering="crispEdges"/><rect fill="#1b1b1b" x="0" y="562.7" width="1220" height="24.65" shape-rendering="crispEdges"/><rect fill="#1b1b1b" x="0" y="587.1" width="24.4" height="24.65" shape-rendering="crispEdges"/><rect fill="#242424" x="24.4" y="587.1" width="12.2" height="24.65" shape-rendering="crispEdges"/><rect fill="#242424" x="36.6" y="587.1" width="939.4" height="24.65" shape-rendering="crispEdges"/><rect fill="#242424" x="976" y="587.1" width="12.2" height="24.65" shape-rendering="crispEdges"/><rect fill="#1b1b1b" x="988.2" y="587.1" width="12.2" height="24.65" shape-rendering="crispEdges"/><rect fill="#656565" x="1000.4" y="587.1" width="195.2" height="24.65" shape-rendering="crispEdges"/><rect fill="#1b1b1b" x="1195.6" y="587.1" width="24.4" height="24.65" shape-rendering="crispEdges"/><rect fill="#1b1b1b" x="0" y="611.5" width="24.4" height="24.65" shape-rendering="crispEdges"/><rect fill="#242424" x="24.4" y="611.5" width="12.2" height="24.65" shape-rendering="crispEdges"/><rect fill="#242424" x="36.6" y="611.5" width="12.2" height="24.65" shape-rendering="crispEdges"/><rect fill="#e0e0e0" x="48.8" y="611.5" width="12.2" height="24.65" shape-rendering="crispEdges"/><rect fill="#2c2c2c" x="61" y="611.5" width="427" height="24.65" shape-rendering="crispEdges"/><rect fill="#2c2c2c" x="488" y="611.5" width="475.8" height="24.65" shape-rendering="crispEdges"/><rect fill="#242424" x="963.8" y="611.5" width="12.2" height="24.65" shape-rendering="crispEdges"/><rect fill="#242424" x="976" y="611.5" width="12.2" height="24.65" shape-rendering="crispEdges"/><rect fill="#1b1b1b" x="988.2" y="611.5" width="12.2" height="24.65" shape-rendering="crispEdges"/><rect fill="#656565" x="1000.4" y="611.5" width="195.2" height="24.65" shape-rendering="crispEdges"/><rect fill="#1b1b1b" x="1195.6" y="611.5" width="24.4" height="24.65" shape-rendering="crispEdges"/><rect fill="#1b1b1b" x="0" y="635.9" width="24.4" height="24.65" shape-rendering="crispEdges"/><rect fill="#242424" x="24.4" y="635.9" width="12.2" height="24.65" shape-rendering="crispEdges"/><rect fill="#242424" x="36.6" y="635.9" width="12.2" height="24.65" shape-rendering="crispEdges"/><rect fill="#242424" x="48.8" y="635.9" width="915" height="24.65" shape-rendering="crispEdges"/><rect fill="#242424" x="963.8" y="635.9" width="12.2" height="24.65" shape-rendering="crispEdges"/><rect fill="#242424" x="976" y="635.9" width="12.2" height="24.65" shape-rendering="crispEdges"/><rect fill="#1b1b1b" x="988.2" y="635.9" width="12.2" height="24.65" shape-rendering="crispEdges"/><rect fill="#656565" x="1000.4" y="635.9" width="61" height="24.65" shape-rendering="crispEdges"/><rect fill="#656565" x="1061.4" y="635.9" width="73.2" height="24.65" shape-rendering="crispEdges"/><rect fill="#656565" x="1134.6" y="635.9" width="61" height="24.65" shape-rendering="crispEdges"/><rect fill="#1b1b1b" x="1195.6" y="635.9" width="24.4" height="24.65" shape-rendering="crispEdges"/><rect fill="#1b1b1b" x="0" y="660.3" width="24.4" height="24.65" shape-rendering="crispEdges"/><rect fill="#242424" x="24.4" y="660.3" width="12.2" height="24.65" shape-rendering="crispEdges"/><rect fill="#242424" x="36.6" y="660.3" width="12.2" height="24.65" shape-rendering="crispEdges"/><rect fill="#242424" x="48.8" y="660.3" width="915" height="24.65" shape-rendering="crispEdges"/><rect fill="#242424" x="963.8" y="660.3" width="12.2" height="24.65" shape-rendering="crispEdges"/><rect fill="#242424" x="976" y="660.3" width="12.2" height="24.65" shape-rendering="crispEdges"/><rect fill="#1b1b1b" x="988.2" y="660.3" width="12.2" height="24.65" shape-rendering="crispEdges"/><rect fill="#656565" x="1000.4" y="660.3" width="195.2" height="24.65" shape-rendering="crispEdges"/><rect fill="#1b1b1b" x="1195.6" y="660.3" width="24.4" height="24.65" shape-rendering="crispEdges"/><rect fill="#1b1b1b" x="0" y="684.7" width="1220" height="24.65" shape-rendering="crispEdges"/><rect fill="#1b1b1b" x="0" y="709.1" width="48.8" height="24.65" shape-rendering="crispEdges"/><rect fill="#1b1b1b" x="48.8" y="709.1" width="97.6" height="24.65" shape-rendering="crispEdges"/><rect fill="#1b1b1b" x="146.4" y="709.1" width="48.8" height="24.65" shape-rendering="crispEdges"/><rect fill="#1b1b1b" x="195.2" y="709.1" width="61" height="24.65" shape-rendering="crispEdges"/><rect fill="#1b1b1b" x="256.2" y="709.1" width="48.8" height="24.65" shape-rendering="crispEdges"/><rect fill="#1b1b1b" x="305" y="709.1" width="61" height="24.65" shape-rendering="crispEdges"/><rect fill="#1b1b1b" x="366" y="709.1" width="48.8" height="24.65" shape-rendering="crispEdges"/><rect fill="#1b1b1b" x="414.8" y="709.1" width="85.4" height="24.65" shape-rendering="crispEdges"/><rect fill="#1b1b1b" x="500.2" y="709.1" width="48.8" height="24.65" shape-rendering="crispEdges"/><rect fill="#1b1b1b" x="549" y="709.1" width="134.2" height="24.65" shape-rendering="crispEdges"/><rect fill="#1b1b1b" x="683.2" y="709.1" width="390.4" height="24.65" shape-rendering="crispEdges"/><rect fill="#1b1b1b" x="1073.6" y="709.1" width="12.2" height="24.65" shape-rendering="crispEdges"/><rect fill="#1b1b1b" x="1085.8" y="709.1" width="24.4" height="24.65" shape-rendering="crispEdges"/><rect fill="#1b1b1b" x="1110.2" y="709.1" width="97.6" height="24.65" shape-rendering="crispEdges"/><rect fill="#1b1b1b" x="1207.8" y="709.1" width="12.2" height="24.65" shape-rendering="crispEdges"/>
    <g class="terminal-2326266696-matrix">
    <text class="terminal-2326266696-r2" x="24.4" y="20" textLength="97.6" clip-path="url(#terminal-2326266696-line-0)">◈&#160;&#160;JEVEX</text><text class="terminal-2326266696-r3" x="1061.4" y="20" textLength="134.2" clip-path="url(#terminal-2326266696-line-0)">gpt-6.1-sol</text><text class="terminal-2326266696-r1" x="1220" y="20" textLength="12.2" clip-path="url(#terminal-2326266696-line-0)">
</text><text class="terminal-2326266696-r1" x="1220" y="44.4" textLength="12.2" clip-path="url(#terminal-2326266696-line-1)">
</text><text class="terminal-2326266696-r4" x="0" y="68.8" textLength="1220" clip-path="url(#terminal-2326266696-line-2)">────────────────────────────────────────────────────────────────────────────────────────────────────</text><text class="terminal-2326266696-r1" x="1220" y="68.8" textLength="12.2" clip-path="url(#terminal-2326266696-line-2)">
</text><text class="terminal-2326266696-r1" x="1220" y="93.2" textLength="12.2" clip-path="url(#terminal-2326266696-line-3)">
</text><text class="terminal-2326266696-r5" x="36.6" y="117.6" textLength="256.2" clip-path="url(#terminal-2326266696-line-4)">&#160;&#160;Ready&#160;when&#160;you&#160;are.</text><text class="terminal-2326266696-r1" x="1220" y="117.6" textLength="12.2" clip-path="url(#terminal-2326266696-line-4)">
</text><text class="terminal-2326266696-r7" x="36.6" y="142" textLength="280.6" clip-path="url(#terminal-2326266696-line-5)">&#160;&#160;↳&#160;gpt-6.1-sol&#160;&#160;·&#160;&#160;jev</text><text class="terminal-2326266696-r1" x="1220" y="142" textLength="12.2" clip-path="url(#terminal-2326266696-line-5)">
</text><text class="terminal-2326266696-r8" x="36.6" y="166.4" textLength="353.8" clip-path="url(#terminal-2326266696-line-6)">&#160;&#160;$&#160;rg&#160;-n&#160;&#x27;parse_config&#x27;&#160;src/</text><text class="terminal-2326266696-r1" x="1220" y="166.4" textLength="12.2" clip-path="url(#terminal-2326266696-line-6)">
</text><text class="terminal-2326266696-r1" x="1220" y="190.8" textLength="12.2" clip-path="url(#terminal-2326266696-line-7)">
</text><text class="terminal-2326266696-r2" x="36.6" y="215.2" textLength="85.4" clip-path="url(#terminal-2326266696-line-8)">&#160;&#160;CODEX</text><text class="terminal-2326266696-r1" x="1220" y="215.2" textLength="12.2" clip-path="url(#terminal-2326266696-line-8)">
</text><text class="terminal-2326266696-r6" x="36.6" y="239.6" textLength="378.2" clip-path="url(#terminal-2326266696-line-9)">Found&#160;the&#160;duplicate&#160;parsing&#160;in&#160;</text><text class="terminal-2326266696-r9" x="414.8" y="239.6" textLength="158.6" clip-path="url(#terminal-2326266696-line-9)">src/config.py</text><text class="terminal-2326266696-r6" x="573.4" y="239.6" textLength="439.2" clip-path="url(#terminal-2326266696-line-9)">.&#160;I&#160;moved&#160;validation&#160;into&#160;the&#160;shared</text><text class="terminal-2326266696-r1" x="1220" y="239.6" textLength="12.2" clip-path="url(#terminal-2326266696-line-9)">
</text><text class="terminal-2326266696-r6" x="36.6" y="264" textLength="475.8" clip-path="url(#terminal-2326266696-line-10)">entry&#160;point&#160;and&#160;ran&#160;the&#160;focused&#160;check.&#160;</text><text class="terminal-2326266696-r10" x="512.4" y="264" textLength="195.2" clip-path="url(#terminal-2326266696-line-10)">All&#160;checks&#160;pass.</text><text class="terminal-2326266696-r1" x="1220" y="264" textLength="12.2" clip-path="url(#terminal-2326266696-line-10)">
</text><text class="terminal-2326266696-r1" x="1220" y="288.4" textLength="12.2" clip-path="url(#terminal-2326266696-line-11)">
</text><text class="terminal-2326266696-r1" x="1220" y="312.8" textLength="12.2" clip-path="url(#terminal-2326266696-line-12)">
</text><text class="terminal-2326266696-r1" x="1220" y="337.2" textLength="12.2" clip-path="url(#terminal-2326266696-line-13)">
</text><text class="terminal-2326266696-r1" x="1220" y="361.6" textLength="12.2" clip-path="url(#terminal-2326266696-line-14)">
</text><text class="terminal-2326266696-r1" x="1220" y="386" textLength="12.2" clip-path="url(#terminal-2326266696-line-15)">
</text><text class="terminal-2326266696-r1" x="1220" y="410.4" textLength="12.2" clip-path="url(#terminal-2326266696-line-16)">
</text><text class="terminal-2326266696-r1" x="1220" y="434.8" textLength="12.2" clip-path="url(#terminal-2326266696-line-17)">
</text><text class="terminal-2326266696-r1" x="1220" y="459.2" textLength="12.2" clip-path="url(#terminal-2326266696-line-18)">
</text><text class="terminal-2326266696-r1" x="1220" y="483.6" textLength="12.2" clip-path="url(#terminal-2326266696-line-19)">
</text><text class="terminal-2326266696-r11" x="24.4" y="508" textLength="183" clip-path="url(#terminal-2326266696-line-20)">Working&#160;&#160;·&#160;&#160;jev</text><text class="terminal-2326266696-r1" x="1220" y="508" textLength="12.2" clip-path="url(#terminal-2326266696-line-20)">
</text><text class="terminal-2326266696-r1" x="1220" y="532.4" textLength="12.2" clip-path="url(#terminal-2326266696-line-21)">
</text><text class="terminal-2326266696-r4" x="0" y="556.8" textLength="1220" clip-path="url(#terminal-2326266696-line-22)">────────────────────────────────────────────────────────────────────────────────────────────────────</text><text class="terminal-2326266696-r1" x="1220" y="556.8" textLength="12.2" clip-path="url(#terminal-2326266696-line-22)">
</text><text class="terminal-2326266696-r1" x="1220" y="581.2" textLength="12.2" clip-path="url(#terminal-2326266696-line-23)">
</text><text class="terminal-2326266696-r12" x="24.4" y="605.6" textLength="12.2" clip-path="url(#terminal-2326266696-line-24)">╭</text><text class="terminal-2326266696-r12" x="36.6" y="605.6" textLength="939.4" clip-path="url(#terminal-2326266696-line-24)">─────────────────────────────────────────────────────────────────────────────</text><text class="terminal-2326266696-r12" x="976" y="605.6" textLength="12.2" clip-path="url(#terminal-2326266696-line-24)">╮</text><text class="terminal-2326266696-r1" x="1220" y="605.6" textLength="12.2" clip-path="url(#terminal-2326266696-line-24)">
</text><text class="terminal-2326266696-r12" x="24.4" y="630" textLength="12.2" clip-path="url(#terminal-2326266696-line-25)">│</text><text class="terminal-2326266696-r14" x="48.8" y="630" textLength="12.2" clip-path="url(#terminal-2326266696-line-25)">C</text><text class="terminal-2326266696-r15" x="61" y="630" textLength="427" clip-path="url(#terminal-2326266696-line-25)">an&#160;you&#160;review&#160;the&#160;edge&#160;cases&#160;next?&#160;</text><text class="terminal-2326266696-r12" x="976" y="630" textLength="12.2" clip-path="url(#terminal-2326266696-line-25)">│</text><text class="terminal-2326266696-r1" x="1220" y="630" textLength="12.2" clip-path="url(#terminal-2326266696-line-25)">
</text><text class="terminal-2326266696-r12" x="24.4" y="654.4" textLength="12.2" clip-path="url(#terminal-2326266696-line-26)">│</text><text class="terminal-2326266696-r12" x="976" y="654.4" textLength="12.2" clip-path="url(#terminal-2326266696-line-26)">│</text><text class="terminal-2326266696-r13" x="1061.4" y="654.4" textLength="73.2" clip-path="url(#terminal-2326266696-line-26)">&#160;SEND&#160;</text><text class="terminal-2326266696-r1" x="1220" y="654.4" textLength="12.2" clip-path="url(#terminal-2326266696-line-26)">
</text><text class="terminal-2326266696-r12" x="24.4" y="678.8" textLength="12.2" clip-path="url(#terminal-2326266696-line-27)">│</text><text class="terminal-2326266696-r12" x="976" y="678.8" textLength="12.2" clip-path="url(#terminal-2326266696-line-27)">│</text><text class="terminal-2326266696-r1" x="1220" y="678.8" textLength="12.2" clip-path="url(#terminal-2326266696-line-27)">
</text><text class="terminal-2326266696-r1" x="1220" y="703.2" textLength="12.2" clip-path="url(#terminal-2326266696-line-28)">
</text><text class="terminal-2326266696-r16" x="0" y="727.6" textLength="48.8" clip-path="url(#terminal-2326266696-line-29)">&#160;^k&#160;</text><text class="terminal-2326266696-r6" x="48.8" y="727.6" textLength="97.6" clip-path="url(#terminal-2326266696-line-29)">API&#160;key&#160;</text><text class="terminal-2326266696-r16" x="146.4" y="727.6" textLength="48.8" clip-path="url(#terminal-2326266696-line-29)">&#160;^q&#160;</text><text class="terminal-2326266696-r6" x="195.2" y="727.6" textLength="61" clip-path="url(#terminal-2326266696-line-29)">Quit&#160;</text><text class="terminal-2326266696-r16" x="256.2" y="727.6" textLength="48.8" clip-path="url(#terminal-2326266696-line-29)">&#160;^⏎&#160;</text><text class="terminal-2326266696-r6" x="305" y="727.6" textLength="61" clip-path="url(#terminal-2326266696-line-29)">Send&#160;</text><text class="terminal-2326266696-r16" x="366" y="727.6" textLength="48.8" clip-path="url(#terminal-2326266696-line-29)">&#160;^m&#160;</text><text class="terminal-2326266696-r6" x="414.8" y="727.6" textLength="85.4" clip-path="url(#terminal-2326266696-line-29)">Models&#160;</text><text class="terminal-2326266696-r16" x="500.2" y="727.6" textLength="48.8" clip-path="url(#terminal-2326266696-line-29)">&#160;^l&#160;</text><text class="terminal-2326266696-r6" x="549" y="727.6" textLength="134.2" clip-path="url(#terminal-2326266696-line-29)">Clear&#160;view&#160;</text><text class="terminal-2326266696-r17" x="1073.6" y="727.6" textLength="12.2" clip-path="url(#terminal-2326266696-line-29)">▏</text><text class="terminal-2326266696-r16" x="1085.8" y="727.6" textLength="24.4" clip-path="url(#terminal-2326266696-line-29)">^p</text><text class="terminal-2326266696-r6" x="1110.2" y="727.6" textLength="97.6" clip-path="url(#terminal-2326266696-line-29)">&#160;palette</text>
    </g>
    </g>
</svg>
